<?xml version="1.0" encoding="UTF-8"?>
<svg xmlns="http://www.w3.org/2000/svg" xmlns:xlink="http://www.w3.org/1999/xlink" width="64px" height="32px" viewBox="0 0 64 32" version="1.1">
<g id="surface1">
<rect x="0" y="0" width="64" height="32" style="fill:rgb(100%,100%,0%);fill-opacity:1;stroke:none;"/>
<path style=" stroke:none;fill-rule:evenodd;fill:rgb(89.019608%,11.764706%,14.117648%);fill-opacity:1;" d="M 6.125 21.152344 L 5.570312 21.28125 C 4.828125 21.320312 4.917969 21.148438 4.925781 22.597656 C 4.929688 23.515625 4.929688 24.433594 4.917969 25.347656 C 4.90625 26.0625 4.800781 26.101562 5.449219 26.128906 C 5.894531 26.144531 6.4375 26.117188 6.894531 26.121094 C 7.808594 26.125 8.722656 26.132812 9.636719 26.136719 C 11.320312 26.144531 19.609375 26.324219 20.527344 26.042969 C 20.691406 25.699219 20.632812 25.09375 20.632812 24.679688 L 20.617188 20.054688 L 15.871094 20.035156 C 15.761719 21.632812 16.371094 21.269531 13.363281 21.28125 L 12.394531 21.257812 C 12.058594 21.191406 12.269531 21.246094 12.140625 21.171875 C 11.949219 20.679688 11.945312 10.308594 12.140625 9.769531 C 12.273438 9.683594 12.15625 9.722656 12.398438 9.671875 L 13.007812 9.613281 C 13.253906 9.570312 13.109375 9.621094 13.25 9.535156 C 13.472656 9.023438 13.34375 5.710938 13.308594 4.882812 C 12.355469 4.667969 6.113281 4.734375 4.9375 4.851562 C 4.882812 5.910156 4.820312 8.234375 4.914062 9.230469 C 5.015625 10.292969 6.144531 8.988281 6.226562 10.085938 C 6.273438 10.707031 6.203125 11.722656 6.203125 12.398438 C 6.207031 13.753906 6.4375 20.457031 6.125 21.152344 Z M 6.125 21.152344 "/>
<path style=" stroke:none;fill-rule:evenodd;fill:rgb(89.019608%,11.764706%,14.117648%);fill-opacity:1;" d="M 41.824219 10.847656 L 46.5625 10.875 L 46.605469 9.667969 L 47.851562 9.667969 L 47.886719 21.246094 L 46.609375 21.296875 L 46.574219 26.085938 L 54.933594 26.109375 L 54.972656 21.289062 C 53.332031 21.261719 53.765625 22.191406 53.75 16.128906 C 53.742188 14.164062 53.597656 11.578125 53.761719 9.691406 C 55.332031 9.5 54.910156 9.609375 55.035156 10.871094 L 59.753906 10.875 L 59.777344 4.835938 L 41.847656 4.820312 Z M 41.824219 10.847656 "/>
<path style=" stroke:none;fill-rule:evenodd;fill:rgb(89.019608%,11.764706%,14.117648%);fill-opacity:1;" d="M 22.699219 7.246094 C 22.699219 10.117188 22.5 9.535156 23.976562 9.683594 C 24.085938 10.894531 24.015625 21.027344 23.957031 21.125 C 23.804688 21.371094 23.84375 21.261719 23.460938 21.28125 C 23.339844 21.289062 23.265625 21.269531 23.136719 21.289062 C 22.5 21.390625 22.683594 22.039062 22.695312 23.363281 L 22.726562 25.992188 C 23.304688 26.246094 29.648438 26.09375 31.089844 26.078125 C 31.160156 25.378906 31.1875 21.832031 31.027344 21.402344 C 30.894531 21.234375 30.1875 21.292969 29.867188 21.230469 L 29.847656 18.972656 C 29.832031 17.855469 29.691406 18.023438 31.128906 18.019531 L 33.433594 18.019531 C 36.292969 18.023438 35.621094 18.273438 37.140625 16.765625 C 37.589844 16.316406 37.957031 15.957031 38.425781 15.527344 C 39.457031 14.582031 39.269531 14.574219 39.269531 12.507812 L 39.269531 10.535156 C 39.265625 7.796875 39.488281 8.414062 38.015625 6.941406 C 37.589844 6.511719 37.242188 6.152344 36.808594 5.734375 C 35.953125 4.902344 36.171875 4.820312 34.640625 4.820312 C 32.53125 4.820312 25.054688 4.675781 23.214844 4.804688 C 22.566406 4.851562 22.703125 4.960938 22.707031 5.703125 C 22.710938 6.214844 22.699219 6.730469 22.699219 7.246094 Z M 29.664062 9.410156 C 32.953125 9.230469 33.699219 9.078125 33.703125 11.414062 C 33.707031 12.519531 33.617188 13.269531 32.683594 13.429688 C 31.96875 13.554688 30.398438 13.46875 29.605469 13.433594 Z M 29.664062 9.410156 "/>
</g>
</svg>
